<svg width="411" height="313" viewBox="0 0 411 313" fill="none" xmlns="http://www.w3.org/2000/svg">
<rect width="411" height="205" fill="#3D3B59"/>
<g clip-path="url(#clip0)">
<g filter="url(#filter0_d)">
<path d="M123.192 96.4028L146.774 72.6025H344.226V228.693H123.192V96.4028Z" fill="white"/>
</g>
<path d="M146.733 72.5859L123.041 96.5792H147.41L146.733 72.5859Z" fill="#C4C4C4"/>
<path d="M257.609 95.7988H152.033V136.875H257.609V95.7988Z" fill="#C4C4C4"/>
<path d="M166.013 193.416H152.033V213.471H166.013V193.416Z" fill="#6671DA"/>
<path d="M184.332 178.918H170.352V213.471H184.332V178.918Z" fill="#60C1E0"/>
<path d="M202.651 183.751H188.671V213.471H202.651V183.751Z" fill="#E4DA6E"/>
<path d="M220.97 171.669H206.989V213.471H220.97V171.669Z" fill="#70E3AD"/>
<path d="M239.289 162.488H225.309V213.471H239.289V162.488Z" fill="#DC162E"/>
<path d="M257.608 146.057H243.628V213.471H257.608V146.057Z" fill="#A412E9"/>
<path d="M328.076 95.7988H270.226V213.471H328.076V95.7988Z" fill="#C4C4C4"/>
<path d="M142.74 136.875L48.7095 153.324L74.5782 301.925L168.609 285.476L142.74 136.875Z" fill="#C4C4C4"/>
<path d="M123.53 304.58C97.5411 309.127 75.5453 307.485 74.4009 300.912C73.2566 294.339 93.3969 285.324 119.386 280.778C145.374 276.231 167.37 277.873 168.514 284.446C169.659 291.019 149.519 300.034 123.53 304.58Z" fill="#C4C4C4"/>
<path d="M60.1143 164.356L135.886 151.099L141.774 184.914L66.0016 198.171L60.1143 164.356Z" fill="#716C69" stroke="black" stroke-width="8"/>
<path d="M67.1287 222.891L107.533 215.823L109.208 225.44L68.8031 232.508L67.1287 222.891Z" fill="#FF6600"/>
<path d="M150.805 218.25L112.982 224.867L111.308 215.25L149.131 208.633L150.805 218.25Z" fill="#4A4440"/>
<path d="M64.5314 208.784L146.182 194.499L147.856 204.116L66.2058 218.401L64.5314 208.784Z" fill="#4A4440"/>
<path d="M127.039 197.371L130.906 196.695L132.731 207.176L128.864 207.852L127.039 197.371Z" fill="#C4C4C4"/>
<path d="M104.691 200.389L108.245 199.767L110.346 211.835L106.792 212.456L104.691 200.389Z" fill="#C4C4C4"/>
<path d="M85.9433 203.113L81.3843 203.91L83.7525 217.512L88.3115 216.715L85.9433 203.113Z" fill="#C4C4C4"/>
<path d="M58.2422 165.37L138.375 151.351L140.049 160.968L59.9166 174.987L58.2422 165.37Z" fill="black"/>
<path d="M69.8337 238.146L151.905 223.787L153.58 233.404L71.5081 247.763L69.8337 238.146Z" fill="#4A4440"/>
<path d="M132.343 226.733L136.209 226.056L138.034 236.537L134.167 237.214L132.343 226.733Z" fill="#C4C4C4"/>
<path d="M109.994 229.75L113.548 229.128L115.649 241.196L112.095 241.818L109.994 229.75Z" fill="#C4C4C4"/>
<path d="M91.2466 232.474L86.6875 233.272L89.0557 246.874L93.6148 246.076L91.2466 232.474Z" fill="#C4C4C4"/>
<path d="M72.0249 251.967L134.675 241.006L136.349 250.623L73.6993 261.584L72.0249 251.967Z" fill="#4A4440"/>
<path d="M112.185 243.571L115.738 242.949L117.839 255.017L114.286 255.639L112.185 243.571Z" fill="#C4C4C4"/>
<path d="M93.4375 246.295L88.8784 247.093L91.2466 260.695L95.8054 259.898L93.4375 246.295Z" fill="#C4C4C4"/>
<path d="M74.4346 265.12L137.275 254.126L138.95 263.743L76.109 274.737L74.4346 265.12Z" fill="#4A4440"/>
<path d="M114.092 256.812L117.646 256.191L119.747 268.259L116.193 268.88L114.092 256.812Z" fill="#C4C4C4"/>
<path d="M95.3442 259.536L90.7852 260.334L93.1534 273.936L97.7124 273.138L95.3442 259.536Z" fill="#C4C4C4"/>
<path d="M77.0096 278.364L139.903 267.361L141.578 276.978L78.684 287.981L77.0096 278.364Z" fill="#4A4440"/>
<path d="M116.261 270.102L119.814 269.48L121.916 281.548L118.362 282.17L116.261 270.102Z" fill="#C4C4C4"/>
<path d="M97.5136 272.826L92.9546 273.624L95.3228 287.225L99.8819 286.428L97.5136 272.826Z" fill="#C4C4C4"/>
<path d="M85.0784 219.274L88.9448 218.598L90.7696 229.079L86.9032 229.755L85.0784 219.274Z" fill="#C4C4C4"/>
<path d="M135.501 221.514L131.635 222.19L129.81 211.709L133.676 211.033L135.501 221.514Z" fill="#C4C4C4"/>
<path d="M138.655 239.969L154.25 237.24L160.638 273.929L145.043 276.658L138.655 239.969Z" fill="#4A4440"/>
<path d="M168.099 285L165.658 292.497" stroke="black" stroke-linecap="round"/>
</g>
<defs>
<filter id="filter0_d" x="109.192" y="62.6025" width="249.034" height="184.091" filterUnits="userSpaceOnUse" color-interpolation-filters="sRGB">
<feFlood flood-opacity="0" result="BackgroundImageFix"/>
<feColorMatrix in="SourceAlpha" type="matrix" values="0 0 0 0 0 0 0 0 0 0 0 0 0 0 0 0 0 0 127 0" result="hardAlpha"/>
<feOffset dy="4"/>
<feGaussianBlur stdDeviation="7"/>
<feComposite in2="hardAlpha" operator="out"/>
<feColorMatrix type="matrix" values="0 0 0 0 0 0 0 0 0 0 0 0 0 0 0 0 0 0 0.25 0"/>
<feBlend mode="normal" in2="BackgroundImageFix" result="effect1_dropShadow"/>
<feBlend mode="normal" in="SourceGraphic" in2="effect1_dropShadow" result="shape"/>
</filter>
<clipPath id="clip0">
<rect width="305" height="245" fill="white" transform="translate(44 68)"/>
</clipPath>
</defs>
</svg>
