<svg width="411" height="360" viewBox="0 0 411 360" fill="none" xmlns="http://www.w3.org/2000/svg">
<rect width="411" height="217" fill="#3D3B59"/>
<g filter="url(#filter0_d)">
<path d="M49.0957 48.9969H175.42L199.57 72.5389V233.738H49.0957V48.9969Z" fill="white"/>
<path d="M175.372 48.9969L199.394 72.5337H175.372V48.9969Z" fill="#C4C4C4"/>
<path d="M84.4488 73.866C81.2943 73.866 78.1704 74.4632 75.2562 75.6239C72.3415 76.7842 69.6936 78.4852 67.4631 80.6298C65.2323 82.774 63.4629 85.3196 62.2559 88.1215C61.0485 90.923 60.4272 93.9261 60.4272 96.9586H84.4488V73.866Z" fill="#2A7BB1"/>
<path d="M60.4272 97.4027C60.4272 100.435 61.0485 103.438 62.2559 106.24C63.4629 109.041 65.2323 111.587 67.4631 113.732C69.6936 115.876 72.3415 117.577 75.2562 118.737C78.1704 119.898 81.2943 120.495 84.4488 120.495V97.4027H60.4272Z" fill="#EF5160"/>
<path d="M84.9009 120.495C88.0557 120.495 91.1792 119.898 94.0935 118.737C97.0081 117.577 99.656 115.876 101.887 113.732C104.117 111.587 105.887 109.041 107.094 106.24C108.301 103.438 108.922 100.435 108.922 97.4027H84.9009V120.495Z" fill="#FCB245"/>
<path d="M66.772 132.486H188.239" stroke="#CCCCCC" stroke-width="5"/>
<path d="M66.772 146.697H129.319" stroke="#CCCCCC" stroke-width="5"/>
<path d="M66.772 160.907H180.987" stroke="#CCCCCC" stroke-width="5"/>
<path d="M66.772 174.674H93.9662" stroke="#CCCCCC" stroke-width="5"/>
<path d="M66.772 188.885H168.75" stroke="#CCCCCC" stroke-width="5"/>
<path d="M66.772 202.652H143.369" stroke="#CCCCCC" stroke-width="5"/>
<path d="M66.772 216.863H178.721" stroke="#CCCCCC" stroke-width="5"/>
<path d="M102.847 73.6543L94.718 90.9241H93.0847L101.161 74.0651H90.3403V72.7951H102.847V73.6543ZM107.028 81.6354L107.956 72.7951H117.469V74.1774H109.302L108.636 80.3034C109.655 79.6393 110.848 79.3071 112.216 79.3071C113.933 79.3071 115.3 79.8384 116.32 80.9008C117.339 81.9633 117.849 83.3786 117.849 85.1469C117.849 87.0559 117.352 88.5377 116.359 89.5917C115.366 90.6461 113.968 91.1731 112.164 91.1731C110.509 91.1731 109.167 90.7332 108.139 89.8534C107.111 88.9733 106.523 87.7408 106.375 86.1552H107.878C108.026 87.392 108.466 88.3302 109.198 88.9691C109.929 89.6002 110.918 89.9154 112.164 89.9154C113.523 89.9154 114.547 89.5046 115.235 88.6829C115.932 87.8613 116.28 86.6907 116.28 85.1717C116.28 83.8436 115.893 82.7602 115.117 81.9219C114.342 81.0836 113.284 80.6643 111.942 80.6643C111.201 80.6643 110.557 80.7556 110.008 80.9384C109.459 81.1126 108.88 81.4572 108.27 81.9718L107.028 81.6354ZM120.449 76.2815C120.449 75.2023 120.798 74.3102 121.495 73.6047C122.2 72.8907 123.093 72.5337 124.174 72.5337C125.254 72.5337 126.142 72.8907 126.839 73.6047C127.545 74.3102 127.898 75.2275 127.898 76.3562V77.2402C127.898 78.3027 127.55 79.1909 126.853 79.9049C126.164 80.6104 125.28 80.9632 124.2 80.9632C123.128 80.9632 122.235 80.6147 121.521 79.9173C120.806 79.22 120.449 78.2988 120.449 77.1531V76.2815ZM121.717 77.2402C121.717 78.0123 121.939 78.6473 122.383 79.1452C122.836 79.6432 123.442 79.8925 124.2 79.8925C124.94 79.8925 125.528 79.6432 125.964 79.1452C126.408 78.6388 126.63 77.9875 126.63 77.1906V76.2815C126.63 75.5097 126.404 74.8747 125.951 74.3764C125.498 73.8703 124.905 73.6171 124.174 73.6171C123.45 73.6171 122.858 73.8661 122.396 74.364C121.943 74.862 121.717 75.526 121.717 76.3562V77.2402ZM130.028 86.479C130.028 85.3998 130.376 84.5077 131.073 83.8022C131.779 83.0963 132.668 82.7436 133.739 82.7436C134.811 82.7436 135.699 83.0963 136.405 83.8022C137.12 84.4992 137.477 85.4207 137.477 86.5661V87.4501C137.477 88.5292 137.124 89.4217 136.418 90.1272C135.721 90.8327 134.837 91.1855 133.765 91.1855C132.694 91.1855 131.801 90.837 131.086 90.1396C130.381 89.4341 130.028 88.5168 130.028 87.3881V86.479ZM131.283 87.4501C131.283 88.2306 131.505 88.8696 131.949 89.3675C132.402 89.8658 133.007 90.1148 133.765 90.1148C134.515 90.1148 135.107 89.8658 135.543 89.3675C135.987 88.8614 136.209 88.2013 136.209 87.3881V86.479C136.209 85.6821 135.983 85.0432 135.529 84.5615C135.085 84.0717 134.489 83.827 133.739 83.827C133.007 83.827 132.415 84.0717 131.962 84.5615C131.509 85.0513 131.283 85.7072 131.283 86.5289V87.4501ZM124.696 89.4175L123.716 88.82L133.007 74.6505L133.988 75.248L124.696 89.4175Z" fill="#EF5160"/>
<path d="M237.189 283.032H214.527V318.559H237.189V283.032Z" fill="#EC9492"/>
<path d="M308.346 283.032H285.685V318.559H308.346V283.032Z" fill="#EC9492"/>
<path d="M186.277 144.487L186.277 144.487C181.991 146.244 179.992 151.025 181.812 155.164L189.758 173.235C191.578 177.374 196.528 179.304 200.814 177.547C205.099 175.789 207.098 171.009 205.278 166.87L197.332 148.799C195.512 144.66 190.563 142.729 186.277 144.487Z" fill="#EC9492"/>
<path d="M171.174 209.313H146.839C142.67 209.313 139.291 212.527 139.291 216.49V254.983C139.291 258.947 142.67 262.16 146.839 262.16H171.174C175.343 262.16 178.722 258.947 178.722 254.983V216.49C178.722 212.527 175.343 209.313 171.174 209.313Z" fill="#EC9492"/>
<path d="M364.095 227.965C364.095 272.358 318.134 308.345 261.437 308.345C204.741 308.345 158.779 272.358 158.779 227.965C158.779 183.572 204.741 147.585 261.437 147.585C318.134 147.585 364.095 183.572 364.095 227.965Z" fill="#EF5160"/>
<path d="M188.466 209.313C193.848 209.313 198.211 205.039 198.211 199.765C198.211 194.492 193.848 190.218 188.466 190.218C183.084 190.218 178.722 194.492 178.722 199.765C178.722 205.039 183.084 209.313 188.466 209.313Z" fill="#632C3D"/>
<path d="M354.064 172.894L325.277 169.447C323.034 169.178 320.991 170.716 320.713 172.882C320.435 175.047 322.028 177.02 324.27 177.289L353.058 180.735C355.3 181.004 357.343 179.466 357.621 177.301C357.899 175.135 356.307 173.162 354.064 172.894Z" fill="#EF5160"/>
<path d="M237.189 164.007C237.189 162.335 238.444 160.898 240.182 160.575C242.646 160.119 244.671 159.744 247.651 159.192C251.737 158.435 265.444 157.502 276.61 159.192C278.672 159.504 281.339 160.057 283.327 160.492C284.983 160.855 286.138 162.255 286.138 163.859C286.138 166.296 283.561 167.997 281.099 167.26C279.59 166.808 277.976 166.361 276.61 166.064C265.59 163.669 258.729 163.918 247.651 166.064C245.971 166.389 243.942 166.912 242.12 167.418C239.686 168.096 237.189 166.401 237.189 164.007Z" fill="#A33E5D"/>
<path d="M333.713 113.659L307.405 85.0163C306.055 83.5471 303.728 83.4126 302.207 84.7158L232.418 144.504C230.897 145.808 230.757 148.055 232.107 149.524L258.415 178.167C259.764 179.636 262.092 179.771 263.613 178.468L333.402 118.679C334.923 117.376 335.062 115.128 333.713 113.659Z" fill="#6BC06F"/>
<path d="M328.054 114.523L305.997 90.5079C305.125 89.5581 303.62 89.4712 302.637 90.3136L238.116 145.589C237.132 146.432 237.042 147.884 237.915 148.834L259.972 172.849C260.844 173.799 262.349 173.886 263.332 173.043L327.853 117.768C328.837 116.925 328.927 115.473 328.054 114.523Z" fill="#6BC06F" stroke="#87CC8A" stroke-width="7"/>
<path d="M247.483 158.243C249.095 156.909 250.414 155.288 251.363 153.472C252.312 151.657 252.874 149.683 253.016 147.662C253.158 145.642 252.878 143.614 252.19 141.696C251.503 139.778 250.423 138.006 249.012 136.483L236.735 146.641L247.483 158.243Z" fill="#87CC8A"/>
<path d="M273.901 163.916C272.53 162.389 270.868 161.144 269.01 160.251C267.152 159.359 265.134 158.837 263.072 158.715C261.01 158.593 258.943 158.874 256.991 159.54C255.038 160.207 253.238 161.248 251.692 162.602L262.132 174.23L273.901 163.916Z" fill="#87CC8A"/>
<path d="M319.219 104.508C317.649 105.84 316.365 107.459 315.439 109.273C314.513 111.087 313.963 113.061 313.822 115.082C313.68 117.102 313.95 119.13 314.615 121.05C315.279 122.969 316.326 124.742 317.696 126.269L329.648 116.128L319.219 104.508Z" fill="#87CC8A"/>
<path d="M292.03 99.9845C293.463 101.48 295.186 102.688 297.1 103.538C299.014 104.389 301.083 104.866 303.187 104.942C305.291 105.017 307.39 104.69 309.364 103.98C311.338 103.269 313.149 102.189 314.692 100.8L303.782 89.4092L292.03 99.9845Z" fill="#87CC8A"/>
<path d="M287.345 133.428C286.88 132.942 286.39 132.67 285.876 132.614C285.361 132.557 284.672 132.682 283.808 132.99C282.945 133.297 282.126 133.559 281.353 133.776C280.58 133.992 279.842 134.104 279.14 134.111C278.437 134.117 277.775 133.992 277.152 133.735C276.529 133.479 275.921 133.04 275.326 132.418C274.332 131.377 273.88 130.199 273.969 128.884C274.053 127.562 274.651 126.309 275.763 125.125L273.901 123.175L275.43 121.828L277.328 123.814C278.66 122.946 280.024 122.6 281.42 122.776C282.816 122.94 284.074 123.607 285.192 124.777L281.941 127.642C281.33 127.001 280.73 126.622 280.145 126.503C279.559 126.384 279.029 126.534 278.554 126.952C278.131 127.325 277.925 127.745 277.935 128.213C277.945 128.669 278.165 129.122 278.594 129.571C279.029 130.027 279.511 130.272 280.04 130.306C280.561 130.333 281.239 130.207 282.07 129.928C282.896 129.642 283.698 129.4 284.477 129.202C285.256 128.991 285.997 128.883 286.699 128.877C287.401 128.87 288.073 128.992 288.714 129.244C289.356 129.495 289.974 129.931 290.568 130.553C291.574 131.606 292.045 132.773 291.982 134.055C291.925 135.33 291.35 136.551 290.257 137.719L292.031 139.576L290.502 140.924L288.719 139.058C287.186 140.148 285.674 140.636 284.183 140.521C282.692 140.395 281.338 139.694 280.12 138.419L283.361 135.562C284.032 136.264 284.703 136.659 285.377 136.746C286.051 136.821 286.686 136.596 287.282 136.07C287.718 135.686 287.944 135.26 287.959 134.794C287.967 134.321 287.763 133.866 287.345 133.428Z" fill="white"/>
<path d="M279.656 183.424C279.656 193.307 271.322 201.32 261.042 201.32C250.762 201.32 242.428 193.307 242.428 183.424C242.428 173.54 228.468 166.064 261.042 165.349C295.85 166.243 279.656 173.54 279.656 183.424Z" fill="#EF5160"/>
<path d="M198.785 262.16H102.91C101.225 262.16 99.8584 263.481 99.8584 265.11V316.053C99.8584 317.683 101.225 319.003 102.91 319.003H198.785C200.47 319.003 201.837 317.683 201.837 316.053V265.11C201.837 263.481 200.47 262.16 198.785 262.16Z" fill="#C7805C"/>
<path d="M192.55 234.399L152.905 234.269C150.872 234.263 149.218 235.849 149.211 237.813L148.932 317.284C148.925 319.247 150.567 320.845 152.601 320.852L192.245 320.981C194.279 320.988 195.933 319.401 195.94 317.438L196.219 237.967C196.226 236.003 194.583 234.406 192.55 234.399Z" fill="#6BC06F"/>
<path d="M189.45 238.678L156.211 238.569C154.896 238.565 153.827 239.59 153.822 240.86L153.565 314.273C153.56 315.542 154.622 316.575 155.937 316.579L189.176 316.688C190.49 316.693 191.56 315.667 191.564 314.397L191.822 240.984C191.826 239.715 190.764 238.682 189.45 238.678Z" fill="#6BC06F" stroke="#87CC8A" stroke-width="7"/>
<path d="M169.656 316.339C169.675 314.549 169.284 312.774 168.506 311.113C167.727 309.453 166.575 307.941 165.116 306.662C163.657 305.384 161.92 304.365 160.003 303.663C158.086 302.961 156.027 302.591 153.944 302.572L153.793 316.198L169.656 316.339Z" fill="#87CC8A"/>
<path d="M191.865 302.572C189.729 302.565 187.612 302.914 185.636 303.6C183.66 304.285 181.863 305.294 180.348 306.567C178.832 307.841 177.629 309.355 176.805 311.022C175.982 312.69 175.555 314.479 175.548 316.286L191.816 316.339L191.865 302.572Z" fill="#87CC8A"/>
<path d="M176.003 238.179C175.98 240.023 176.367 241.854 177.142 243.566C177.918 245.278 179.067 246.838 180.524 248.158C181.98 249.478 183.716 250.53 185.631 251.257C187.547 251.983 189.605 252.368 191.688 252.39L191.865 238.347L176.003 238.179Z" fill="#87CC8A"/>
<path d="M154.105 253.278C156.188 253.244 158.242 252.849 160.15 252.116C162.059 251.383 163.785 250.327 165.228 249.007C166.672 247.687 167.806 246.13 168.565 244.425C169.324 242.719 169.694 240.899 169.653 239.067L153.793 239.331L154.105 253.278Z" fill="#87CC8A"/>
<path d="M176.667 274.881C175.978 274.888 175.44 275.059 175.053 275.393C174.666 275.727 174.305 276.31 173.969 277.143C173.634 277.975 173.293 278.744 172.946 279.45C172.6 280.155 172.196 280.764 171.733 281.277C171.27 281.789 170.731 282.184 170.117 282.462C169.502 282.739 168.754 282.883 167.873 282.893C166.399 282.909 165.18 282.441 164.214 281.489C163.239 280.536 162.66 279.257 162.478 277.653L159.718 277.684L159.686 275.668L162.498 275.636C162.708 274.087 163.347 272.866 164.414 271.975C165.473 271.076 166.83 270.616 168.487 270.598L168.556 274.883C167.649 274.893 166.954 275.07 166.471 275.414C165.988 275.757 165.752 276.242 165.762 276.868C165.771 277.426 165.961 277.859 166.332 278.167C166.695 278.468 167.194 278.614 167.831 278.607C168.476 278.6 168.988 278.416 169.366 278.057C169.735 277.698 170.088 277.123 170.424 276.333C170.751 275.543 171.097 274.799 171.461 274.102C171.816 273.396 172.225 272.787 172.687 272.275C173.15 271.762 173.693 271.359 174.316 271.064C174.94 270.77 175.692 270.618 176.573 270.608C178.064 270.591 179.287 271.038 180.244 271.949C181.2 272.851 181.77 274.092 181.952 275.67L184.581 275.641L184.614 277.657L181.971 277.687C181.801 279.532 181.174 280.955 180.09 281.956C178.999 282.949 177.551 283.456 175.745 283.476L175.677 279.203C176.671 279.192 177.426 278.972 177.943 278.544C178.45 278.107 178.698 277.495 178.685 276.709C178.676 276.134 178.494 275.684 178.14 275.358C177.777 275.033 177.286 274.873 176.667 274.881Z" fill="white"/>
<path d="M123.012 211.716L90.4033 233.493C88.7308 234.609 88.3125 236.824 89.469 238.44L142.527 312.546C143.684 314.161 145.977 314.565 147.65 313.448L180.258 291.672C181.931 290.555 182.349 288.34 181.192 286.725L128.134 212.619C126.978 211.003 124.684 210.599 123.012 211.716Z" fill="#6BC06F"/>
<path d="M123.219 217.244L95.8796 235.502C94.7984 236.224 94.528 237.656 95.2756 238.7L144.329 307.213C145.076 308.257 146.559 308.518 147.64 307.796L174.98 289.538C176.061 288.816 176.332 287.384 175.584 286.34L126.531 217.828C125.783 216.783 124.301 216.522 123.219 217.244Z" fill="#6BC06F" stroke="#87CC8A" stroke-width="7"/>
<path d="M158.779 299.839C157.597 298.2 156.084 296.798 154.328 295.712C152.572 294.626 150.607 293.878 148.545 293.509C146.482 293.141 144.363 293.159 142.309 293.565C140.254 293.97 138.305 294.753 136.57 295.871L145.575 308.345L158.779 299.839Z" fill="#87CC8A"/>
<path d="M167.433 275.039C165.719 276.183 164.256 277.642 163.127 279.333C161.997 281.023 161.223 282.912 160.849 284.892C160.475 286.871 160.509 288.902 160.948 290.869C161.387 292.836 162.222 294.7 163.407 296.355L176.455 287.641L167.433 275.039Z" fill="#87CC8A"/>
<path d="M112.095 224.71C113.275 226.398 114.786 227.844 116.54 228.965C118.295 230.086 120.26 230.86 122.322 231.242C124.384 231.625 126.503 231.609 128.56 231.195C130.615 230.781 132.567 229.978 134.304 228.831L125.319 215.975L112.095 224.71Z" fill="#87CC8A"/>
<path d="M104.001 250.17C105.736 248.968 107.205 247.452 108.326 245.709C109.447 243.965 110.197 242.027 110.533 240.006C110.87 237.986 110.786 235.921 110.287 233.932C109.789 231.942 108.884 230.065 107.626 228.409L94.4194 237.559L104.001 250.17Z" fill="#87CC8A"/>
<path d="M137.885 258.624C137.321 259.013 136.978 259.451 136.856 259.94C136.734 260.429 136.782 261.108 136.997 261.978C137.213 262.847 137.387 263.667 137.519 264.439C137.651 265.21 137.678 265.935 137.599 266.612C137.521 267.289 137.31 267.912 136.967 268.481C136.624 269.05 136.091 269.583 135.37 270.08C134.163 270.911 132.879 271.203 131.518 270.957C130.149 270.716 128.914 269.988 127.813 268.772L125.553 270.329L124.333 268.692L126.636 267.106C125.892 265.717 125.697 264.361 126.05 263.037C126.391 261.711 127.24 260.581 128.596 259.647L131.191 263.126C130.448 263.638 129.979 264.169 129.784 264.719C129.589 265.269 129.681 265.798 130.059 266.306C130.397 266.758 130.811 267.008 131.3 267.056C131.777 267.101 132.276 266.944 132.797 266.586C133.325 266.221 133.639 265.787 133.738 265.282C133.831 264.783 133.782 264.115 133.591 263.28C133.394 262.45 133.239 261.648 133.126 260.873C133.002 260.097 132.978 259.37 133.057 258.693C133.135 258.016 133.345 257.383 133.685 256.796C134.025 256.208 134.556 255.666 135.277 255.169C136.497 254.328 137.773 254.016 139.102 254.233C140.425 254.443 141.63 255.146 142.715 256.34L144.868 254.857L146.088 256.494L143.925 257.984C144.877 259.594 145.202 261.11 144.901 262.532C144.588 263.953 143.692 265.173 142.214 266.191L139.627 262.722C140.441 262.161 140.934 261.562 141.107 260.923C141.267 260.283 141.109 259.644 140.633 259.005C140.286 258.539 139.869 258.27 139.384 258.199C138.891 258.133 138.392 258.275 137.885 258.624Z" fill="white"/>
<path d="M198.785 270.153H102.91C101.225 270.153 99.8584 271.474 99.8584 273.104V324.047C99.8584 325.676 101.225 326.997 102.91 326.997H198.785C200.47 326.997 201.837 325.676 201.837 324.047V273.104C201.837 271.474 200.47 270.153 198.785 270.153Z" fill="#E99261"/>
<path d="M175.671 279.035H102.909C101.224 279.035 99.8584 280.349 99.8584 281.97V324.062C99.8584 325.683 101.224 326.997 102.909 326.997H175.671C177.356 326.997 178.721 325.683 178.721 324.062V281.97C178.721 280.349 177.356 279.035 175.671 279.035Z" fill="#E58A6B"/>
<path d="M186.094 279.035H113.332C111.647 279.035 110.282 280.349 110.282 281.97V324.062C110.282 325.683 111.647 326.997 113.332 326.997H186.094C187.779 326.997 189.145 325.683 189.145 324.062V281.97C189.145 280.349 187.779 279.035 186.094 279.035Z" fill="#FAA17E"/>
<path d="M198.786 279.035H126.024C124.339 279.035 122.974 280.349 122.974 281.97V324.062C122.974 325.683 124.339 326.997 126.024 326.997H198.786C200.471 326.997 201.837 325.683 201.837 324.062V281.97C201.837 280.349 200.471 279.035 198.786 279.035Z" fill="#F9B38C"/>
<path d="M143.822 290.36C143.822 294.161 140.676 297.243 136.797 297.243C132.917 297.243 129.771 294.161 129.771 290.36C129.771 286.558 132.917 283.476 136.797 283.476C140.676 283.476 143.822 286.558 143.822 290.36ZM133.988 290.36C133.988 291.879 135.246 293.112 136.797 293.112C138.348 293.112 139.605 291.879 139.605 290.36C139.605 288.84 138.348 287.608 136.797 287.608C135.246 287.608 133.988 288.84 133.988 290.36Z" fill="#DE9266"/>
</g>
<defs>
<filter id="filter0_d" x="16.0957" y="31.9969" width="365" height="328" filterUnits="userSpaceOnUse" color-interpolation-filters="sRGB">
<feFlood flood-opacity="0" result="BackgroundImageFix"/>
<feColorMatrix in="SourceAlpha" type="matrix" values="0 0 0 0 0 0 0 0 0 0 0 0 0 0 0 0 0 0 127 0" result="hardAlpha"/>
<feOffset dx="-8" dy="8"/>
<feGaussianBlur stdDeviation="12.5"/>
<feComposite in2="hardAlpha" operator="out"/>
<feColorMatrix type="matrix" values="0 0 0 0 0 0 0 0 0 0 0 0 0 0 0 0 0 0 0.25 0"/>
<feBlend mode="normal" in2="BackgroundImageFix" result="effect1_dropShadow"/>
<feBlend mode="normal" in="SourceGraphic" in2="effect1_dropShadow" result="shape"/>
</filter>
</defs>
</svg>
